<svg width="46" height="48" fill="none" xmlns="http://www.w3.org/2000/svg"><path fill="#E1B9B9" d="M0 0h46v48H0z"/><g clip-path="url(#clip0)"><path fill="#F2F2F2" d="M-668-849H612V84H-668z"/><g filter="url(#filter0_d)"><path fill="#fff" d="M-628-849H572V84H-628z"/></g><path fill="#fff" d="M-628-36H572V84H-628z"/><path fill="#81B3D2" d="M0 0h46v48H0z"/><path fill-rule="evenodd" clip-rule="evenodd" d="M16 16h14c1.65 0 3 1.35 3 3v10c0 1.65-1.35 3-3 3H16c-1.65 0-3-1.35-3-3V19c0-1.65 1.35-3 3-3zm3.027 4.002v7.996L28.014 24l-8.987-3.998z" fill="#fff"/></g><defs><clipPath id="clip0"><path fill="#fff" d="M-668-849H612V84H-668z"/></clipPath><filter id="filter0_d" x="-643" y="-859" width="1230" height="963" filterUnits="userSpaceOnUse" color-interpolation-filters="sRGB"><feFlood flood-opacity="0" result="BackgroundImageFix"/><feColorMatrix in="SourceAlpha" values="0 0 0 0 0 0 0 0 0 0 0 0 0 0 0 0 0 0 127 0"/><feOffset dy="5"/><feGaussianBlur stdDeviation="7.5"/><feColorMatrix values="0 0 0 0 0 0 0 0 0 0.00392157 0 0 0 0 0.00392157 0 0 0 0.2 0"/><feBlend in2="BackgroundImageFix" result="effect1_dropShadow"/><feBlend in="SourceGraphic" in2="effect1_dropShadow" result="shape"/></filter></defs></svg>