<svg width="46" height="48" fill="none" xmlns="http://www.w3.org/2000/svg"><path fill="#E1B9B9" d="M0 0h46v48H0z"/><g clip-path="url(#clip0)"><path fill="#F2F2F2" d="M-564-849H716V84H-564z"/><g filter="url(#filter0_d)"><path fill="#fff" d="M-524-849H676V84H-524z"/></g><path fill="#fff" d="M-524-36H676V84H-524z"/><path fill="#81B3D2" d="M0 0h46v48H0z"/><path d="M25.95 17.144c1.685-.496 2.984.27 3.577 1.179.673-.231 1.331-.481 2.011-.708a2.345 2.345 0 01-.857 1.768c.685.17 1.304-.491 1.304-.491-.169 1-1.006 1.788-1.563 2.024-.231 6.75-3.175 11.217-10.077 11.082h-.446c-.41 0-4.164-.46-4.898-1.887 2.271.196 3.893-.422 4.693-1.177-.96-.3-2.679-.477-2.979-2.95.349.106.564.228 1.19.119-1.2-.856-2.531-1.573-2.457-3.773.285.328 1.067.536 1.34.472-.703-.241-1.97-3.36-.894-4.952 1.818 1.854 3.735 3.606 7.152 3.773.208-2.293 1.137-3.83 2.904-4.479z" fill="#fff"/></g><defs><clipPath id="clip0"><path fill="#fff" d="M-564-849H716V84H-564z"/></clipPath><filter id="filter0_d" x="-539" y="-859" width="1230" height="963" filterUnits="userSpaceOnUse" color-interpolation-filters="sRGB"><feFlood flood-opacity="0" result="BackgroundImageFix"/><feColorMatrix in="SourceAlpha" values="0 0 0 0 0 0 0 0 0 0 0 0 0 0 0 0 0 0 127 0"/><feOffset dy="5"/><feGaussianBlur stdDeviation="7.5"/><feColorMatrix values="0 0 0 0 0 0 0 0 0 0.00392157 0 0 0 0 0.00392157 0 0 0 0.2 0"/><feBlend in2="BackgroundImageFix" result="effect1_dropShadow"/><feBlend in="SourceGraphic" in2="effect1_dropShadow" result="shape"/></filter></defs></svg>